<mxfile host="Electron" modified="2023-12-26T18:52:28.377Z" agent="Mozilla/5.0 (Windows NT 10.0; Win64; x64) AppleWebKit/537.36 (KHTML, like Gecko) draw.io/22.1.11 Chrome/114.0.5735.289 Electron/25.9.8 Safari/537.36" etag="3pm8kG1qVuC6EZLuEVG-" version="22.1.11" type="device">
  <diagram name="Page-1" id="HsitdcN0r7PipA14mCh1">
    <mxGraphModel dx="2205" dy="-1048" grid="1" gridSize="10" guides="1" tooltips="1" connect="1" arrows="1" fold="1" page="1" pageScale="1" pageWidth="1169" pageHeight="1654" math="0" shadow="0">
      <root>
        <mxCell id="0" />
        <mxCell id="1" parent="0" />
        <mxCell id="conp8-0LCWzHYiCez7KT-149" value="" style="shape=umlLifeline;perimeter=lifelinePerimeter;whiteSpace=wrap;html=1;container=1;dropTarget=0;collapsible=0;recursiveResize=0;outlineConnect=0;portConstraint=eastwest;newEdgeStyle={&quot;curved&quot;:0,&quot;rounded&quot;:0};participant=umlActor;" parent="1" vertex="1">
          <mxGeometry x="50" y="1920" width="20" height="460" as="geometry" />
        </mxCell>
        <mxCell id="conp8-0LCWzHYiCez7KT-150" value="" style="html=1;points=[[0,0,0,0,5],[0,1,0,0,-5],[1,0,0,0,5],[1,1,0,0,-5]];perimeter=orthogonalPerimeter;outlineConnect=0;targetShapes=umlLifeline;portConstraint=eastwest;newEdgeStyle={&quot;curved&quot;:0,&quot;rounded&quot;:0};" parent="conp8-0LCWzHYiCez7KT-149" vertex="1">
          <mxGeometry x="5" y="226" width="10" height="214" as="geometry" />
        </mxCell>
        <mxCell id="conp8-0LCWzHYiCez7KT-151" value="User:" style="shape=umlLifeline;perimeter=lifelinePerimeter;whiteSpace=wrap;html=1;container=1;dropTarget=0;collapsible=0;recursiveResize=0;outlineConnect=0;portConstraint=eastwest;newEdgeStyle={&quot;curved&quot;:0,&quot;rounded&quot;:0};" parent="1" vertex="1">
          <mxGeometry x="250" y="1920" width="100" height="460" as="geometry" />
        </mxCell>
        <mxCell id="conp8-0LCWzHYiCez7KT-152" value="" style="html=1;points=[[0,0,0,0,5],[0,1,0,0,-5],[1,0,0,0,5],[1,1,0,0,-5]];perimeter=orthogonalPerimeter;outlineConnect=0;targetShapes=umlLifeline;portConstraint=eastwest;newEdgeStyle={&quot;curved&quot;:0,&quot;rounded&quot;:0};" parent="conp8-0LCWzHYiCez7KT-151" vertex="1">
          <mxGeometry x="45" y="236" width="10" height="60" as="geometry" />
        </mxCell>
        <mxCell id="conp8-0LCWzHYiCez7KT-154" value="Customer" style="text;html=1;strokeColor=none;fillColor=none;align=center;verticalAlign=middle;whiteSpace=wrap;rounded=0;" parent="1" vertex="1">
          <mxGeometry x="30" y="1880" width="60" height="30" as="geometry" />
        </mxCell>
        <mxCell id="conp8-0LCWzHYiCez7KT-155" value="LoginScreen:" style="shape=umlLifeline;perimeter=lifelinePerimeter;whiteSpace=wrap;html=1;container=1;dropTarget=0;collapsible=0;recursiveResize=0;outlineConnect=0;portConstraint=eastwest;newEdgeStyle={&quot;curved&quot;:0,&quot;rounded&quot;:0};" parent="1" vertex="1">
          <mxGeometry x="130" y="1920" width="100" height="460" as="geometry" />
        </mxCell>
        <mxCell id="conp8-0LCWzHYiCez7KT-156" value="" style="html=1;points=[[0,0,0,0,5],[0,1,0,0,-5],[1,0,0,0,5],[1,1,0,0,-5]];perimeter=orthogonalPerimeter;outlineConnect=0;targetShapes=umlLifeline;portConstraint=eastwest;newEdgeStyle={&quot;curved&quot;:0,&quot;rounded&quot;:0};" parent="conp8-0LCWzHYiCez7KT-155" vertex="1">
          <mxGeometry x="45" y="226" width="10" height="80" as="geometry" />
        </mxCell>
        <mxCell id="conp8-0LCWzHYiCez7KT-157" value="&lt;font style=&quot;font-size: 10px;&quot;&gt;Login(email,pass)&lt;/font&gt;" style="html=1;verticalAlign=bottom;endArrow=block;curved=0;rounded=0;exitX=1;exitY=0;exitDx=0;exitDy=5;exitPerimeter=0;" parent="1" edge="1">
          <mxGeometry width="80" relative="1" as="geometry">
            <mxPoint x="65" y="2166" as="sourcePoint" />
            <mxPoint x="175" y="2166" as="targetPoint" />
          </mxGeometry>
        </mxCell>
        <mxCell id="conp8-0LCWzHYiCez7KT-158" value="Verification" style="html=1;verticalAlign=bottom;endArrow=block;curved=0;rounded=0;entryX=-0.015;entryY=0.25;entryDx=0;entryDy=0;entryPerimeter=0;" parent="1" edge="1">
          <mxGeometry width="80" relative="1" as="geometry">
            <mxPoint x="185" y="2176" as="sourcePoint" />
            <mxPoint x="295" y="2176" as="targetPoint" />
          </mxGeometry>
        </mxCell>
        <mxCell id="conp8-0LCWzHYiCez7KT-159" value="" style="html=1;verticalAlign=bottom;endArrow=open;dashed=1;endSize=8;curved=0;rounded=0;exitX=0;exitY=1;exitDx=0;exitDy=-5;exitPerimeter=0;" parent="1" edge="1">
          <mxGeometry relative="1" as="geometry">
            <mxPoint x="175" y="2216" as="sourcePoint" />
            <mxPoint x="65" y="2216" as="targetPoint" />
          </mxGeometry>
        </mxCell>
        <mxCell id="conp8-0LCWzHYiCez7KT-160" value="" style="html=1;verticalAlign=bottom;endArrow=open;dashed=1;endSize=8;curved=0;rounded=0;exitX=0;exitY=1;exitDx=0;exitDy=-5;exitPerimeter=0;" parent="1" edge="1">
          <mxGeometry relative="1" as="geometry">
            <mxPoint x="295" y="2196" as="sourcePoint" />
            <mxPoint x="185" y="2196" as="targetPoint" />
          </mxGeometry>
        </mxCell>
        <mxCell id="conp8-0LCWzHYiCez7KT-166" value="Customer:" style="shape=umlLifeline;perimeter=lifelinePerimeter;whiteSpace=wrap;html=1;container=1;dropTarget=0;collapsible=0;recursiveResize=0;outlineConnect=0;portConstraint=eastwest;newEdgeStyle={&quot;curved&quot;:0,&quot;rounded&quot;:0};" parent="1" vertex="1">
          <mxGeometry x="376" y="1920" width="100" height="460" as="geometry" />
        </mxCell>
        <mxCell id="conp8-0LCWzHYiCez7KT-170" value="" style="html=1;points=[[0,0,0,0,5],[0,1,0,0,-5],[1,0,0,0,5],[1,1,0,0,-5]];perimeter=orthogonalPerimeter;outlineConnect=0;targetShapes=umlLifeline;portConstraint=eastwest;newEdgeStyle={&quot;curved&quot;:0,&quot;rounded&quot;:0};" parent="conp8-0LCWzHYiCez7KT-166" vertex="1">
          <mxGeometry x="45" y="320" width="10" height="60" as="geometry" />
        </mxCell>
        <mxCell id="conp8-0LCWzHYiCez7KT-171" value="ViewHistoryOfOrders" style="html=1;verticalAlign=bottom;endArrow=block;curved=0;rounded=0;endFill=1;" parent="1" target="conp8-0LCWzHYiCez7KT-170" edge="1">
          <mxGeometry width="80" relative="1" as="geometry">
            <mxPoint x="65" y="2253" as="sourcePoint" />
            <mxPoint x="415" y="2253" as="targetPoint" />
          </mxGeometry>
        </mxCell>
        <mxCell id="conp8-0LCWzHYiCez7KT-177" value="opt" style="shape=umlFrame;whiteSpace=wrap;html=1;pointerEvents=0;width=40;height=20;" parent="1" vertex="1">
          <mxGeometry x="-20" y="1980" width="370" height="140" as="geometry" />
        </mxCell>
        <mxCell id="conp8-0LCWzHYiCez7KT-178" value="[Not Registered]" style="text;html=1;align=center;verticalAlign=middle;resizable=0;points=[];autosize=1;strokeColor=none;fillColor=none;fontSize=9;" parent="1" vertex="1">
          <mxGeometry x="-30" y="2000" width="90" height="20" as="geometry" />
        </mxCell>
        <mxCell id="conp8-0LCWzHYiCez7KT-179" value="" style="html=1;points=[[0,0,0,0,5],[0,1,0,0,-5],[1,0,0,0,5],[1,1,0,0,-5]];perimeter=orthogonalPerimeter;outlineConnect=0;targetShapes=umlLifeline;portConstraint=eastwest;newEdgeStyle={&quot;curved&quot;:0,&quot;rounded&quot;:0};" parent="1" vertex="1">
          <mxGeometry x="295" y="2010" width="10" height="50" as="geometry" />
        </mxCell>
        <mxCell id="conp8-0LCWzHYiCez7KT-180" value="Register" style="html=1;verticalAlign=bottom;endArrow=block;curved=0;rounded=0;exitX=1;exitY=0;exitDx=0;exitDy=5;exitPerimeter=0;" parent="1" edge="1">
          <mxGeometry width="80" relative="1" as="geometry">
            <mxPoint x="65" y="2015" as="sourcePoint" />
            <mxPoint x="175" y="2015" as="targetPoint" />
          </mxGeometry>
        </mxCell>
        <mxCell id="conp8-0LCWzHYiCez7KT-181" value="AddUserData" style="html=1;verticalAlign=bottom;endArrow=block;curved=0;rounded=0;entryX=-0.015;entryY=0.25;entryDx=0;entryDy=0;entryPerimeter=0;" parent="1" source="conp8-0LCWzHYiCez7KT-186" target="conp8-0LCWzHYiCez7KT-179" edge="1">
          <mxGeometry width="80" relative="1" as="geometry">
            <mxPoint x="185" y="2022.5" as="sourcePoint" />
            <mxPoint x="290" y="2030" as="targetPoint" />
          </mxGeometry>
        </mxCell>
        <mxCell id="conp8-0LCWzHYiCez7KT-182" value="" style="html=1;verticalAlign=bottom;endArrow=open;dashed=1;endSize=8;curved=0;rounded=0;exitX=0;exitY=1;exitDx=0;exitDy=-5;exitPerimeter=0;" parent="1" source="conp8-0LCWzHYiCez7KT-179" edge="1">
          <mxGeometry relative="1" as="geometry">
            <mxPoint x="295" y="2050" as="sourcePoint" />
            <mxPoint x="185" y="2055" as="targetPoint" />
          </mxGeometry>
        </mxCell>
        <mxCell id="conp8-0LCWzHYiCez7KT-183" value="" style="html=1;verticalAlign=bottom;endArrow=open;dashed=1;endSize=8;curved=0;rounded=0;exitX=0;exitY=1;exitDx=0;exitDy=-5;exitPerimeter=0;entryX=1;entryY=1;entryDx=0;entryDy=-5;entryPerimeter=0;" parent="1" edge="1">
          <mxGeometry relative="1" as="geometry">
            <mxPoint x="175" y="2085" as="sourcePoint" />
            <mxPoint x="65" y="2085" as="targetPoint" />
          </mxGeometry>
        </mxCell>
        <mxCell id="conp8-0LCWzHYiCez7KT-184" value="" style="html=1;points=[[0,0,0,0,5],[0,1,0,0,-5],[1,0,0,0,5],[1,1,0,0,-5]];perimeter=orthogonalPerimeter;outlineConnect=0;targetShapes=umlLifeline;portConstraint=eastwest;newEdgeStyle={&quot;curved&quot;:0,&quot;rounded&quot;:0};" parent="1" vertex="1">
          <mxGeometry x="55" y="2000" width="10" height="100" as="geometry" />
        </mxCell>
        <mxCell id="conp8-0LCWzHYiCez7KT-185" value="" style="html=1;verticalAlign=bottom;endArrow=block;curved=0;rounded=0;entryX=-0.015;entryY=0.25;entryDx=0;entryDy=0;entryPerimeter=0;" parent="1" target="conp8-0LCWzHYiCez7KT-186" edge="1">
          <mxGeometry width="80" relative="1" as="geometry">
            <mxPoint x="185" y="2022.5" as="sourcePoint" />
            <mxPoint x="295" y="2023" as="targetPoint" />
          </mxGeometry>
        </mxCell>
        <mxCell id="conp8-0LCWzHYiCez7KT-186" value="" style="html=1;points=[[0,0,0,0,5],[0,1,0,0,-5],[1,0,0,0,5],[1,1,0,0,-5]];perimeter=orthogonalPerimeter;outlineConnect=0;targetShapes=umlLifeline;portConstraint=eastwest;newEdgeStyle={&quot;curved&quot;:0,&quot;rounded&quot;:0};" parent="1" vertex="1">
          <mxGeometry x="175" y="2000" width="10" height="100" as="geometry" />
        </mxCell>
        <mxCell id="Q0qVbIqVThQ2V7iinmqw-1" value="" style="html=1;verticalAlign=bottom;endArrow=open;dashed=1;endSize=8;curved=0;rounded=0;" parent="1" source="conp8-0LCWzHYiCez7KT-170" edge="1">
          <mxGeometry relative="1" as="geometry">
            <mxPoint x="640" y="2290" as="sourcePoint" />
            <mxPoint x="65" y="2290" as="targetPoint" />
          </mxGeometry>
        </mxCell>
      </root>
    </mxGraphModel>
  </diagram>
</mxfile>
